<?xml version="1.0" encoding="UTF-8" standalone="no"?><svg xmlns="http://www.w3.org/2000/svg" xmlns:xlink="http://www.w3.org/1999/xlink" contentScriptType="text/ecmascript" fill="#ffffff" width="356.2" zoomAndPan="magnify" contentStyleType="text/css" viewBox="-21.5 -3.3 356.2 503.4" height="503.4" preserveAspectRatio="xMidYMid meet" version="1"><g id="change1_1"><path fill="inherit" d="M327.4,311.3c-2.4-32.1-23.2-46.4-43.4-60.2c-32.2-22.1-62.7-43-20.8-132.6c13.3-28.4,19-52.4,17-71.4 c-1.8-17.1-9.7-29.9-23.5-37.8C235.3-3.3,199.7-3,161.6,9.8c-37.8,12.7-71,35.4-88.9,60.6C25.1,137.3,0.7,204,0,268.6 C-0.6,323.5,16.4,374.8,49.1,417c40.5,52.3,99.8,83,153.5,83c15.3,0.1,30.5-2.6,44.9-8c26.9-10.3,48.3-30.6,62.1-58.7 C325,401.6,331,360.6,327.4,311.3z M246.8,490.1c-14.1,5.3-29.1,8-44.2,7.9c-53.1,0-111.8-30.4-151.9-82.2 c-72.2-93.1-63.3-221.8,23.7-344.2c17.7-24.9,50.5-47.2,87.9-59.8c19.2-6.5,37.6-9.7,53.9-9.7c15.7,0,29.3,3,39.6,9 c13.2,7.7,20.8,19.9,22.5,36.4c1.9,18.6-3.7,42.3-16.8,70.3c-19.3,41.4-24.8,71-17.3,93.3c6.7,19.7,23,30.9,38.8,41.7 c19.8,13.6,40.3,27.6,42.5,58.7C334.7,437.1,280.1,477.3,246.8,490.1L246.8,490.1z M267.8,261c-28.5-20.3-55.5-39.5-18.6-119.8 C261,115.7,266,94.1,264,76.9c-1.8-15.5-9-27-21.6-34.4c-40.8-23.9-131,5-166.3,53.4c-21,28.8-37,57.5-47.5,85.2 c-5.9,15.6-10.5,31.7-13.5,48c-6.6,35.5-5.7,70.1,2.8,102.8c10.6,41.1,33.3,78.1,65.2,106.2c29.6,26,64.7,42,98.9,45.1 c3.9,0.4,7.7,0.5,11.5,0.5c35.5,0,65.7-15,85.6-43c21.3-29.7,30.3-71.8,26.8-125C304.1,286.8,285.7,273.7,267.8,261L267.8,261z M277.4,439.6c-21.7,30.4-55.6,45.2-95.3,41.7c-62.8-5.7-138.7-58.9-162.3-149.9c-8.4-32.4-9.3-66.7-2.7-101.9 c3-16.3,7.5-32.2,13.4-47.7c10.5-27.6,26.4-56.1,47.3-84.8c26.3-36.1,83.4-61.3,127.1-61.3c14.1,0,26.8,2.6,36.6,8.4 c18,10.6,33.7,35.9,6,96.2c-17.1,37.1-21.9,63.8-15.2,84c6,17.9,20.4,28.2,34.4,38.2c17.4,12.4,35.5,25.3,37.2,53.3 C307.3,368.6,298.4,410.3,277.4,439.6L277.4,439.6z M251.5,271c-24.8-18.6-48.2-36.2-16.2-107c24.6-54.9,9.7-78.3-7.2-88.2 c-17.4-10.3-46.1-10.7-76.7-1c-30.1,9.5-57,27-71.8,46.7c-19.4,25.9-33.9,51.1-43,75.2c-5.2,13.9-9.1,28.2-11.6,42.8 C19.6,271,20.6,301.8,28,331c9.2,36.6,29.1,69.6,57,94.9c26,23.4,56.9,38,87.2,41.2c3.9,0.4,7.8,0.6,11.7,0.6 c30.7,0,57.1-12.9,75-37.2c19.2-26,27.8-63.1,25.4-110.2C283,294.5,267,282.5,251.5,271L251.5,271z M257.4,429.3 c-19.7,26.7-49.9,39.3-84.9,35.8C117.4,459.4,50.7,411.3,30,330.4c-7.4-28.9-8.3-59.4-2.9-90.6c2.5-14.5,6.3-28.7,11.5-42.4 c9-23.8,23.4-49,42.7-74.7c14.6-19.4,41.1-36.6,70.8-46c14.6-4.7,28.7-7,41.3-7c13.4,0,25,2.6,33.7,7.7c16.2,9.5,30.4,32.1,6.4,85.7 c-32.7,72.3-7.5,91.2,16.8,109.4c15.8,11.8,30.7,23,32,47.8C284.7,367,276.3,403.6,257.4,429.3L257.4,429.3z M235.4,280.9 c-10.1-8.1-20.5-16.4-24.7-30.1c-4.8-15.5-1.3-36.5,10.8-64.1c21-48,7.6-68.7-7.4-77.6c-32.3-19.3-102,1-130.9,38 c-18.1,23.1-30.6,44.4-38.4,65.1c-4.5,12.1-7.7,24.7-9.6,37.5c-4.4,26.7-3.4,54,3,80.3c7.9,32,24.9,61.1,49,83.7 c22.3,20.9,49.1,34.1,75.5,37.3c3.9,0.5,7.9,0.7,11.8,0.7c26,0,48.6-10.9,64.4-31.3c17.3-22.4,25.4-54.5,23.9-95.4 C262,302.2,248.5,291.3,235.4,280.9L235.4,280.9z M237.3,419c-15.4,19.9-37.4,30.5-62.9,30.5c-3.9,0-7.7-0.2-11.5-0.7 c-55.3-6.7-107-57-122.8-119.5c-6.4-26-7.4-53-3-79.5c1.9-12.7,5.1-25.1,9.6-37.2c7.7-20.5,20.1-41.6,38.1-64.6 c13.1-16.7,36.4-31.3,62.4-39.1c11.3-3.5,23-5.4,34.9-5.5c12.3,0,23,2.4,31,7.2c20.5,12.2,22.7,38.2,6.6,75.1 c-27.5,62.9-6.2,80,14.5,96.6c13.3,10.7,25.9,20.7,26.7,42.4C262.2,365.3,254.3,396.9,237.3,419L237.3,419z M219.2,290.8 c-16.5-14.4-33.5-29.3-11.6-81.4c17.3-41.2,5.4-59.2-7.7-67.1c-13.6-8.2-34.9-9.2-58.3-2.6c-22.6,6.3-43.2,18.6-55,32.9 c-16.4,19.9-27.5,38-33.8,55.1c-3.8,10.5-6.4,21.3-7.7,32.3c-3.3,23-2.2,46.4,3.2,69C61.9,384.1,105,427.6,153,434.6 c3.9,0.6,7.9,0.9,11.9,0.9c20.9,0.3,40.8-9.2,53.9-25.5c15.4-18.8,22.9-45.9,22.4-80.7C241,309.8,229.9,300.1,219.2,290.8z M217.2,408.7c-15.7,19.1-38.4,27.6-63.9,23.9c-47.3-6.9-89.6-49.7-103.1-104.2c-5.4-22.3-6.5-45.5-3.2-68.2 c1.3-10.9,3.9-21.6,7.6-31.9c6.2-16.9,17.2-34.7,33.5-54.5l0,0c11.5-14,31.7-26.1,54-32.3c22.9-6.4,43.6-5.5,56.7,2.4 c17.8,10.7,20.1,33.1,6.9,64.6c-22.5,53.4-4.9,68.8,12.1,83.7c10.9,9.5,21.1,18.5,21.4,37C239.7,363.5,232.3,390.2,217.2,408.7 L217.2,408.7z M202.9,300.6c-12.9-12.7-26.2-25.9-9.3-68.6c13.6-34.3,3.2-49.7-8-56.6c-11.5-7.1-29.4-8.4-49-3.5 c-18.9,4.7-36.3,14.4-46.5,26c-14.9,16.8-24.2,31.1-29.2,45c-3,8.8-5,17.8-5.8,27.1c-2.2,19.3-1,38.8,3.4,57.7 c5.3,22.9,16.6,43.9,32.7,61c15.1,15.7,33.6,26.2,52.2,29.5c3.8,0.7,7.6,1,11.5,1c16.8,0.1,32.8-7.1,43.8-19.7 c13.5-15.2,20.5-37.3,21-65.9C220,317.4,211.3,308.9,202.9,300.6L202.9,300.6z M197.2,398.3c-13.7,15.4-32.7,21.8-53.5,18 c-38.2-6.9-72.5-43.5-83.3-89c-4.3-18.7-5.5-38-3.3-57c0.8-9.1,2.7-18,5.7-26.6c5-13.7,14.1-27.8,28.9-44.4 c21.7-24.5,70.3-36.1,93-22.1c15.1,9.3,17.6,28,7.2,54.1c-17.4,43.9-3.6,57.5,9.7,70.7c8.5,8.3,16.4,16.2,16.2,31.7 C217.2,361.8,210.3,383.5,197.2,398.3z M179.7,254.7c9.9-27.5,1-40.2-8.3-46c-20.9-13.2-60.2-2.9-77.8,14.8 c-9.5,9.6-19.8,21.2-24.7,35c-2.8,7.8-3.4,15.1-3.8,21.9c-1.1,15.6,0.1,31.2,3.5,46.4c8.7,38,34.9,68.3,65.1,75.3 c3.7,0.9,7.5,1.3,11.4,1.3c12.6,0,24.6-5,33.5-14c11.6-11.5,18.2-28.8,19.6-51.2c0.8-13.2-5.4-20.7-11.5-27.9 C177.3,299.3,167.8,287.8,179.7,254.7z M196.1,338.1c-1.4,21.9-7.7,38.7-19,49.9c-11.2,11.3-27.5,15.9-43,12.2 c-29.6-6.9-55.1-36.5-63.6-73.8c-3.3-15-4.5-30.5-3.5-45.8c0.4-6.7,1-13.8,3.7-21.3c4.8-13.5,14.9-24.9,24.2-34.3 c17.1-17.2,55.2-27.3,75.3-14.6c12.4,7.8,14.9,22.9,7.5,43.7c-12.3,34.2-1.9,46.6,7.3,57.6C191.2,318.8,196.9,325.7,196.1,338.1z M165.8,277.4c6.1-20.6-1.3-30.7-8.6-35.6c-16.2-10.7-45.6-4.9-60,7.2c-7.9,6.6-16.6,14.5-20.2,25c-2,6-2,11.6-1.9,16.7 c0.1,11.8,1.3,23.5,3.7,35.1c6.3,30.1,23.7,53.1,45.3,60.1c3.6,1.2,7.4,1.8,11.2,1.8c8.5,0,16.7-3,23.2-8.4 c9.6-7.8,15.9-20.4,18.2-36.4c1.5-10.3-2.3-16.5-6.3-23.1C164.7,310.4,158.8,300.8,165.8,277.4L165.8,277.4z M174.6,342.5 c-2.2,15.5-8.2,27.7-17.4,35.1c-9,7.5-21.3,9.9-32.5,6.3c-20.9-6.7-37.8-29.2-43.9-58.6c-2.3-11.4-3.6-23-3.6-34.7 c-0.1-5.1-0.1-10.4,1.8-16c3.4-10,11.9-17.7,19.5-24.1c13.9-11.6,42.2-17.2,57.7-7.1c9.7,6.4,12.4,17.9,7.8,33.3 c-7.2,24.2-0.9,34.7,4.7,43.9C172.5,327.3,175.9,332.9,174.6,342.5z M151.9,300c2.3-13.9-3.7-21.3-9.1-25.1 c-11.8-8.3-30.6-6.7-42.1-0.4c-5.3,2.9-13.3,7.3-15.7,15.1c-1.2,3.9-0.6,7.5-0.1,10.7l0.1,0.8c0.5,3,1,6,1.4,9 c0.7,4.8,1.5,9.8,2.4,14.6c4.1,23.2,12.6,38.3,25.4,44.8c3.4,1.8,7.3,2.7,11.1,2.7c4.4,0,8.8-1.1,12.7-3.2 c7.9-4.1,13.7-11.6,16.8-21.6c2.5-8,0.9-13.5-1-19.9C152,320.6,149.8,312.9,151.9,300L151.9,300z M153.1,346.9 c-2.9,9.5-8.4,16.5-15.8,20.4c-7.4,3.9-15.3,4-22.1,0.5c-12.1-6.2-20.3-20.8-24.3-43.4c-0.9-4.9-1.6-9.6-2.4-14.6 c-0.5-3-0.9-6-1.4-9l-0.1-0.8c-0.5-3.1-1.1-6.3,0-9.8c2-6.4,8.4-10.4,14.8-13.9c6.5-3.4,13.6-5.1,20.9-5.1c6.9,0,13.8,1.6,19.1,5.3 c7.1,5,10,12.9,8.3,23.2c-2.2,13.3,0.1,21.3,2.1,28.3C153.8,334.1,155.3,339.5,153.1,346.9L153.1,346.9z M104.7,299.9 c-2.6,0-10.4-0.1-11.6,5.2c-0.6,2.4,0.7,4.3,1.8,6l0.4,0.6c2.2,3.6,3.5,7.7,3.8,12c0.2,2.4,0.2,5,0.2,7.6c0,7.7-0.1,15.7,5.1,21.8 c3.4,3.8,8.2,5.9,13.3,5.7h0.1c5.8,0,11.5-2.3,15.5-6.5c6.7-7.3,8.6-19.1,4.8-30.1C133.1,308.4,120.7,300,104.7,299.9L104.7,299.9z M131.7,351c-3.7,3.8-8.8,5.9-14.1,5.9c-4.5,0.1-8.8-1.7-11.8-5c-4.7-5.6-4.7-13.2-4.7-20.6c0-2.6,0-5.3-0.2-7.8 c-0.3-4.5-1.7-8.9-4.1-12.8l-0.4-0.6c-0.9-1.4-1.9-2.9-1.5-4.4c0.6-2.5,3.9-3.7,9.7-3.7c15.1,0.1,26.8,8,31.4,21 C139.7,333.2,138,344.2,131.7,351L131.7,351z"/></g></svg>